<?xml version="1.0" standalone="no"?><svg xmlns="http://www.w3.org/2000/svg" viewBox="0 0 1440 320"><path fill="#0A3981" fill-opacity="0.8" d="M0,224L17.1,218.7C34.3,213,69,203,103,208C137.1,213,171,235,206,250.7C240,267,274,277,309,272C342.9,267,377,245,411,218.7C445.7,192,480,160,514,176C548.6,192,583,256,617,272C651.4,288,686,256,720,229.3C754.3,203,789,181,823,165.3C857.1,149,891,139,926,154.7C960,171,994,213,1029,224C1062.9,235,1097,213,1131,192C1165.7,171,1200,149,1234,144C1268.6,139,1303,149,1337,144C1371.4,139,1406,117,1423,106.7L1440,96L1440,320L1422.9,320C1405.7,320,1371,320,1337,320C1302.9,320,1269,320,1234,320C1200,320,1166,320,1131,320C1097.1,320,1063,320,1029,320C994.3,320,960,320,926,320C891.4,320,857,320,823,320C788.6,320,754,320,720,320C685.7,320,651,320,617,320C582.9,320,549,320,514,320C480,320,446,320,411,320C377.1,320,343,320,309,320C274.3,320,240,320,206,320C171.4,320,137,320,103,320C68.6,320,34,320,17,320L0,320Z"></path></svg>